<svg id="Capa_1" data-name="Capa 1" xmlns="http://www.w3.org/2000/svg" viewBox="0 0 96 96"><defs><style>.cls-1{fill:#5f6368;}</style></defs><path class="cls-1" d="M81.23,5.18a27.08,27.08,0,0,1,9.58,9.59,26.41,26.41,0,0,1,3.67,13.54V67.69a26.41,26.41,0,0,1-3.67,13.54,27,27,0,0,1-9.58,9.58,26.41,26.41,0,0,1-13.54,3.67H28.21a25.92,25.92,0,0,1-13.44-3.67A26.68,26.68,0,0,1,1.52,67.69V28.31a26.26,26.26,0,0,1,3.57-13.4,26.57,26.57,0,0,1,9.68-9.73A26,26,0,0,1,28.21,1.52H67.69A26.5,26.5,0,0,1,81.23,5.18Zm4,23.13a17.25,17.25,0,0,0-2.35-8.84,17.48,17.48,0,0,0-6.39-6.39,17.25,17.25,0,0,0-8.84-2.35H28.21a17,17,0,0,0-8.78,2.35,17.53,17.53,0,0,0-6.35,6.39,17.25,17.25,0,0,0-2.35,8.84V67.69a17.25,17.25,0,0,0,2.35,8.84,17.53,17.53,0,0,0,6.35,6.39,17.06,17.06,0,0,0,8.78,2.35H67.69A17.5,17.5,0,0,0,85.27,67.69ZM60.08,27.13a24.06,24.06,0,0,1,8.79,8.79,24.14,24.14,0,0,1,0,24.16,24.06,24.06,0,0,1-8.79,8.79,24.23,24.23,0,0,1-24.21,0A24,24,0,0,1,27,60.08,23.52,23.52,0,0,1,23.8,48a23.19,23.19,0,0,1,3.29-12.08,24.4,24.4,0,0,1,8.83-8.79,24.14,24.14,0,0,1,24.16,0ZM55.43,60.88a15.3,15.3,0,0,0,5.45-5.45,14.55,14.55,0,0,0,2-7.48,14.26,14.26,0,0,0-2-7.42,15.35,15.35,0,0,0-5.45-5.41,14.84,14.84,0,0,0-15,0A15.27,15.27,0,0,0,35,40.53,14.17,14.17,0,0,0,33,48a14.45,14.45,0,0,0,2,7.48,15.22,15.22,0,0,0,5.45,5.45,14.84,14.84,0,0,0,15,0ZM77,18.72a6.24,6.24,0,0,1,1.83,4.51,6.25,6.25,0,0,1-6.29,6.3A6.26,6.26,0,0,1,68,27.7a6,6,0,0,1-1.88-4.47,6.42,6.42,0,0,1,6.4-6.39A6,6,0,0,1,77,18.72Z"/></svg>