<svg id="Capa_1" data-name="Capa 1" xmlns="http://www.w3.org/2000/svg" viewBox="0 0 140 96"><defs><style>.cls-1{fill:#5f6368;}</style></defs><path class="cls-1" d="M134.76,15.51A16.92,16.92,0,0,0,122.86,3.6C112.29.71,70,.71,70,.71S27.71.71,17.14,3.49a17.26,17.26,0,0,0-11.9,12C2.45,26.08,2.45,48,2.45,48s0,22,2.79,32.49A16.9,16.9,0,0,0,17.14,92.4C27.82,95.29,70,95.29,70,95.29s42.29,0,52.86-2.78A17,17,0,0,0,134.77,80.6c2.78-10.57,2.78-32.49,2.78-32.49S137.66,26.08,134.76,15.51ZM56.54,68.25V27.75L91.7,48Z"/></svg>